<svg id="eG1CZn8AYbe1" xmlns="http://www.w3.org/2000/svg" xmlns:xlink="http://www.w3.org/1999/xlink" viewBox="0 0 807 807" shape-rendering="geometricPrecision" text-rendering="geometricPrecision" project-id="2bdcca0d3def4893915442bfc70a876b" export-id="e0c4c7f6a52d4745a7e7c1691c528767" cached="false"><rect width="80.7" height="80.7" rx="0" ry="0" transform="matrix(10.13821 0 0 10.479881-5.576774-20.16566)" fill="#505050" stroke-width="0"/><g transform="matrix(.1 0 0-.1 0 807)"><path d="M2985,8063c-35-9-87-54-101-89-11-26-14-104-14-365v-331l-252-505-253-504-6-1352-47,7c-71,9-76,11-1117,411-533,205-981,375-995,378-44,11-107-12-144-54-41-45-53-95-37-150c23-78,43-90,351-208c349-133,821-314,1115-428c534-206,608-233,682-253c43-11,104-23,136-27l57-6v-507h-23c-59,0-272,76-882,315-33,13-324,125-647,249-618,238-642,245-707,211-70-35-104-113-82-186c22-72,52-93,226-160c88-33,216-82,285-109c69-26,447-172,841-323c394-152,751-285,794-296c242-64,529-51,765,34c86,32,205,90,215,105c12,20,101,58,160,69c111,21,283,6,458-39c126-33,755-266,792-294c36-28,75-99,75-137-1-33-33-100-61-126-30-27-71-43-113-43-18,0-187,56-375,125s-356,125-374,125c-41,0-107-34-132-67-13-18-21-48-23-88-3-50,0-66,20-94c13-19,37-43,53-52c17-10,248-97,515-194c1678-612,1715-626,1742-652c82-78,51-231-56-283-23-11-52-20-64-20-22,0-197,62-1142,403-504,182-534,190-596,153-77-46-103-152-55-229c34-55-64-16,956-382c843-302,1018-366,1057-386c65-33,96-129,67-206-23-63-93-113-156-113-23,0-204,60-478,159-1169,423-1341,484-1374,488-55,7-121-31-148-87-13-24-23-58-23-75c1-44,33-109,66-132c16-10,112-49,214-85c102-37,424-153,715-258c292-106,556-201,588-212c69-24,113-65,128-120c29-108-56-227-163-228-29,0-321,104-1198,424-386,142-547,196-578,196-117,0-192-115-144-221c10-24,28-52,40-62c11-11,303-122,649-248c345-126,646-237,668-247c22-9,43-16,48-14c5,1,6-2,3-7s1-11,9-14c21-9,75-108,75-139c0-83-82-168-163-168-33,0-2057,730-2314,834-218,89-505,333-778,661-111,133-84,116-385,235-107,43-407,161-667,264-306,121-484,186-507,186-143,0-219-176-118-273c33-32,118-71,138-63c8,3,13,2,10-3-3-4,63-35,147-68s360-143,614-243l463-184l104-120c219-253,404-425,596-553c112-74,208-125,221-117c7,4,9,3,6-3-4-6,1-13,11-16c9-3,116-42,237-87s267-99,325-119c58-21,479-174,935-341c457-166,858-307,892-313c138-24,308,35,413,142c79,81,130,184,138,282l7,74l95,1c140,1,248,43,344,133c86,80,156,227,156,327v44l1028,2l1027,3l34,24c18,13,42,42,52,65c18,40,19,126,19,2593v2552l-236,473c-130,260-241,476-248,480-6,4-8,8-4,8s0,16-8,35c-11,28-14,99-14,368c0,330,0,334-22,367-13,18-36,43-51,54l-28,21-2227,1c-1225,1-2236,0-2247-3Zm4255-663l-2022,2-2023,3-3,144c-2,80-1,155,3,168l5,23h4040v-340Zm-110-335c0-3-75-156-167-340l-168-335h-1997c-1099,0-1998,2-1998,5s75,156,167,340l168,335h1997c1099,0,1998-2,1998-5Zm443-540l167-335v-4840h-680v4832l168,338c92,186,169,339,172,339c3,1,80-150,173-334ZM6730,1350h-195c-107,0-195,1-195,3c0,1,10,27,22,57c16,42,21,78,22,150c1,114-25,206-83,290-35,51-122,132-152,142-9,3-1,22,25,65c100,162,107,370,18,523-53,93-192,213-223,194-7-4-9-3-6,3c4,5-32,23-81,41-90,31-965,352-1015,371l-28,11l32,46c106,154,106,377,1,540-46,70-128,146-194,180-58,29-682,257-793,289-375,109-712,90-909-52-64-46-227-112-278-113-5,0-8,443-8,985v985h4040v-4710Z" fill="#fff"/></g></svg>
